# xmcd
#
# Track frame offsets: 
#        182
#        9245
#        21462
#        34487
#        45922
#        64542
#        75572
#        91560
#        102420
#        114605
#
# Disc length: 1848 seconds
#
# Revision: 4
# Processed by: cddbd v1.5.2PL0 Copyright (c) Steve Scherf et al.
# Submitted via: ExactAudioCopy v0.95b4
#
DISCID=6d07360a
DTITLE=Jimi Hendrix - Gangster Of Love
DYEAR=1984
DGENRE=Rock
TTITLE0=Gangster Of Love
TTITLE1=Let Me Go
TTITLE2=Voice In The Wind
TTITLE3=Two and One Goes
TTITLE4=Good Times
TTITLE5=She's So Fine
TTITLE6=Soul Food
TTITLE7=Freedom And You
TTITLE8=Win Your Love
TTITLE9=Voices
EXTD=
EXTT0=
EXTT1=
EXTT2=
EXTT3=
EXTT4=
EXTT5=
EXTT6=
EXTT7=
EXTT8=
EXTT9=
PLAYORDER=
